<svg xmlns="http://www.w3.org/2000/svg" xmlns:v="https://svgstorm.com"
viewBox = "0 0 300 294"
width="300"
height="294">
<g fill="None" fill-opacity="0.0" stroke="#000000" stroke-opacity="1.00" stroke-width="0.3"><path d="
M 0.00 294.00 
L 300.00 294.00
L 300.00 0.00
L 0.00 0.00
L 0.00 294.00
M 105.00 99.00 
C 106.03 100.26 107.01 101.79 108.00 103.00
C 109.94 105.02 112.19 106.88 114.00 109.00
C 115.35 110.58 116.68 112.47 118.00 114.00
C 125.08 122.21 111.30 119.90 104.00 120.00 C 96.70 120.10 84.72 120.00 77.00 120.00
C 68.45 120.00 60.86 122.25 54.00 127.00
C 51.48 129.05 46.84 133.45 45.00 136.00
C 35.70 151.17 43.25 168.02 61.07 171.93 C 78.90 175.84 101.09 168.95 120.00 173.00 C 138.91 177.05 146.06 158.39 161.00 153.00
C 161.44 152.84 162.00 153.00 162.00 153.00
C 163.99 150.15 166.95 149.22 169.00 147.00
C 171.03 143.61 165.19 139.57 163.00 137.00
C 157.75 130.86 151.89 125.20 147.00 119.00
C 139.95 110.06 128.94 101.96 124.00 92.00
C 123.44 90.87 120.78 90.17 122.00 88.00
C 135.11 89.74 155.63 85.68 168.00 88.00 C 180.37 90.32 181.19 106.00 191.00 112.00
C 192.90 114.40 197.48 122.79 201.00 123.00
C 208.99 116.45 214.93 109.81 223.75 103.75 C 232.57 97.69 237.78 87.43 250.00 88.00 C 262.22 88.57 279.34 87.57 292.00 88.00
C 292.54 91.19 289.21 93.43 287.00 95.00
C 286.60 95.20 286.00 95.00 286.00 95.00
C 280.54 102.81 270.23 108.82 263.00 115.00
C 261.08 116.64 258.81 117.73 257.00 119.00
C 252.42 123.58 243.09 128.42 239.25 133.25 C 235.42 138.09 222.10 142.46 223.00 149.00
C 223.44 151.08 228.53 152.28 229.25 154.75 C 229.96 157.22 233.13 159.40 235.00 161.00
C 237.33 162.99 239.25 165.84 240.00 167.00
C 242.27 169.65 244.77 172.40 247.00 175.00
C 254.65 183.95 262.49 192.99 270.00 202.00
C 259.79 205.30 247.53 201.01 237.00 203.00 C 226.47 204.99 218.40 201.01 213.25 192.75 C 208.09 184.50 202.47 181.59 197.00 174.00
C 195.49 173.24 194.86 171.91 193.00 172.00
C 191.88 172.14 187.77 177.20 186.25 178.25 C 184.74 179.31 180.37 182.76 180.00 183.00
C 177.04 185.53 174.22 187.99 171.00 190.00
C 170.64 190.22 170.00 190.00 170.00 190.00
C 163.21 199.71 155.21 205.34 143.00 204.00 C 130.79 202.66 114.11 205.13 102.00 204.00 C 89.89 202.87 71.98 205.68 61.00 204.00 C 50.02 202.32 36.18 203.48 30.00 194.00
C 29.57 193.83 29.00 194.00 29.00 194.00
C 18.16 191.50 7.30 175.26 6.00 165.00
C 5.94 164.51 6.00 163.50 6.00 163.00
C 3.86 155.90 3.88 149.05 6.00 142.00
C 6.00 141.50 5.98 140.50 6.00 140.00
C 7.01 115.29 36.71 97.82 57.00 92.00
C 59.70 91.22 62.11 90.23 65.00 90.00
C 81.52 86.81 93.74 85.27 105.00 99.00 Z"/>
</g>
<g fill="None" fill-opacity="0.0" stroke="#22043D" stroke-opacity="1.00" stroke-width="0.3"><path d="
M 65.00 90.00 
C 75.68 89.15 91.54 85.27 99.00 94.00
C 100.75 95.75 103.33 97.27 105.00 99.00
C 93.74 85.27 81.52 86.81 65.00 90.00 Z"/>
</g>
<g fill="None" fill-opacity="0.0" stroke="#2E0A44" stroke-opacity="1.00" stroke-width="0.3"><path d="
M 124.00 92.00 
C 123.83 91.00 122.52 90.24 123.00 89.00
C 140.97 92.61 167.39 80.05 178.00 99.00
C 179.50 100.28 180.71 101.62 182.00 103.00
C 184.79 105.99 188.18 108.95 191.00 112.00
C 181.19 106.00 180.37 90.32 168.00 88.00 C 155.63 85.68 135.11 89.74 122.00 88.00
C 120.78 90.17 123.44 90.87 124.00 92.00 Z"/>
</g>
<g fill="None" fill-opacity="0.0" stroke="#371344" stroke-opacity="1.00" stroke-width="0.3"><path d="
M 201.00 123.00 
C 203.41 123.14 208.17 117.44 210.00 116.00
C 220.94 107.36 227.87 99.82 239.75 91.75 C 251.63 83.69 276.72 92.07 291.00 89.00
C 291.27 91.75 287.71 92.68 287.00 95.00
C 289.21 93.43 292.54 91.19 292.00 88.00
C 279.34 87.57 262.22 88.57 250.00 88.00 C 237.78 87.43 232.57 97.69 223.75 103.75 C 214.93 109.81 208.99 116.45 201.00 123.00 Z"/>
</g>
<g fill="None" fill-opacity="0.0" stroke="#6211B3" stroke-opacity="1.00" stroke-width="0.3"><path d="
M 65.00 90.00 
C 62.11 90.23 59.70 91.22 57.00 92.00
C 53.98 93.48 50.22 95.72 47.00 97.00
C 56.54 94.53 65.60 92.58 75.22 90.22 C 84.84 87.86 96.65 90.24 101.70 98.30 C 106.75 106.36 113.77 109.94 118.00 118.00
C 119.99 116.80 111.95 108.82 109.75 106.25 C 107.56 103.68 101.54 96.97 99.00 94.00
C 91.54 85.27 75.68 89.15 65.00 90.00 Z"/>
</g>
<g fill="None" fill-opacity="0.0" stroke="#6E1BA8" stroke-opacity="1.00" stroke-width="0.3"><path d="
M 124.00 92.00 
C 128.94 101.96 139.95 110.06 147.00 119.00
C 153.89 125.89 161.09 133.97 168.25 140.75 C 175.40 147.53 168.71 146.69 165.00 152.00
C 167.85 150.23 170.39 148.09 173.00 146.00
C 170.36 138.33 160.17 134.78 156.25 127.75 C 152.32 120.73 142.94 114.73 143.00 107.00
C 135.50 106.98 129.78 95.54 125.00 90.00
C 135.20 89.19 145.85 91.08 156.00 90.00 C 166.15 88.92 171.89 91.17 178.00 99.00
C 167.39 80.05 140.97 92.61 123.00 89.00
C 122.52 90.24 123.83 91.00 124.00 92.00 Z"/>
</g>
<g fill="None" fill-opacity="0.0" stroke="#8F35B4" stroke-opacity="1.00" stroke-width="0.3"><path d="
M 210.00 116.00 
C 206.49 119.25 203.61 124.81 198.00 124.00
C 203.50 127.54 211.93 116.98 216.77 112.77 C 221.61 108.55 228.68 104.09 234.25 98.25 C 239.81 92.40 248.36 87.89 258.00 90.00 C 267.64 92.11 280.97 87.58 290.00 91.00
C 278.62 99.74 267.12 108.84 257.00 119.00
C 258.81 117.73 261.08 116.64 263.00 115.00
C 270.21 107.79 277.93 101.16 286.00 95.00
C 286.00 95.00 286.60 95.20 287.00 95.00
C 287.71 92.68 291.27 91.75 291.00 89.00
C 276.72 92.07 251.63 83.69 239.75 91.75 C 227.87 99.82 220.94 107.36 210.00 116.00 Z"/>
</g>
<g fill="None" fill-opacity="0.0" stroke="#880CFB" stroke-opacity="1.00" stroke-width="0.3"><path d="
M 47.00 97.00 
C 25.77 102.50 14.84 122.65 6.00 140.00
C 5.98 140.50 6.00 141.50 6.00 142.00
C 6.00 149.00 6.00 156.00 6.00 163.00
C 6.00 163.50 5.94 164.51 6.00 165.00
C 13.18 175.29 19.88 184.47 29.00 194.00
C 29.00 194.00 29.57 193.83 30.00 194.00
C 62.73 206.85 101.97 202.00 138.00 202.00
C 132.56 201.47 123.96 200.56 118.00 201.00 C 112.04 201.44 98.65 201.24 110.00 199.00
C 106.46 197.94 102.40 198.59 99.00 197.00
C 107.94 196.67 102.06 185.47 104.00 180.00
C 106.42 180.21 109.79 179.08 109.00 176.00
C 106.16 178.50 103.18 175.30 100.00 176.00
C 113.54 171.29 134.04 181.68 144.00 168.00
C 137.94 172.20 133.95 174.88 126.00 174.00 C 118.05 173.12 109.90 174.29 102.00 174.00 C 94.10 173.71 84.68 173.95 77.00 174.00 C 69.32 174.05 61.72 174.36 55.32 171.68 C 48.93 169.00 45.27 165.76 42.08 159.92 C 38.88 154.09 39.24 145.61 41.93 139.93 C 44.61 134.24 47.07 130.34 52.25 126.25 C 57.43 122.16 63.71 121.38 70.02 119.02 C 76.34 116.66 86.35 119.72 93.00 118.00 C 99.65 116.28 112.24 121.47 118.00 118.00
C 113.77 109.94 106.75 106.36 101.70 98.30 C 96.65 90.24 84.84 87.86 75.22 90.22 C 65.60 92.58 56.54 94.53 47.00 97.00 Z"/>
</g>
<g fill="None" fill-opacity="0.0" stroke="#B028FD" stroke-opacity="1.00" stroke-width="0.3"><path d="
M 165.00 152.00 
C 164.64 152.22 164.00 152.00 164.00 152.00
C 159.06 157.15 152.76 161.64 147.00 166.00
C 146.05 166.72 144.94 167.35 144.00 168.00
C 134.04 181.68 113.54 171.29 100.00 176.00
C 103.18 175.30 106.16 178.50 109.00 176.00
C 109.79 179.08 106.42 180.21 104.00 180.00
C 102.06 185.47 107.94 196.67 99.00 197.00
C 102.40 198.59 106.46 197.94 110.00 199.00
C 98.65 201.24 112.04 201.44 118.00 201.00 C 123.96 200.56 132.56 201.47 138.00 202.00
C 144.24 202.00 152.72 202.94 157.75 199.75 C 162.77 196.55 164.89 192.50 170.00 190.00
C 170.00 190.00 170.64 190.22 171.00 190.00
C 173.53 186.12 180.04 182.36 183.25 179.25 C 186.45 176.13 193.19 167.90 197.00 173.00
C 197.78 171.97 197.06 171.67 197.00 170.00
C 192.85 169.62 188.82 169.75 186.00 173.00
C 182.11 168.07 189.57 166.13 188.99 159.99 C 188.42 153.85 189.04 146.06 189.00 140.00 C 188.96 133.94 186.61 125.56 194.00 125.00
C 193.68 121.02 187.21 120.72 188.00 115.00
C 190.31 115.93 192.48 117.55 195.00 119.00
C 190.64 113.48 185.81 108.45 182.00 103.00
C 180.71 101.62 179.50 100.28 178.00 99.00
C 171.89 91.17 166.15 88.92 156.00 90.00 C 145.85 91.08 135.20 89.19 125.00 90.00
C 129.78 95.54 135.50 106.98 143.00 107.00
C 142.94 114.73 152.32 120.73 156.25 127.75 C 160.17 134.78 170.36 138.33 173.00 146.00
C 170.39 148.09 167.85 150.23 165.00 152.00 Z"/>
</g>
<g fill="None" fill-opacity="0.0" stroke="#CD3FFB" stroke-opacity="1.00" stroke-width="0.3"><path d="
M 198.00 124.00 
C 197.58 123.73 195.63 119.80 195.00 119.00
C 192.48 117.55 190.31 115.93 188.00 115.00
C 187.21 120.72 193.68 121.02 194.00 125.00
C 186.61 125.56 188.96 133.94 189.00 140.00 C 189.04 146.06 188.42 153.85 188.99 159.99 C 189.57 166.13 182.11 168.07 186.00 173.00
C 188.82 169.75 192.85 169.62 197.00 170.00
C 197.06 171.67 197.78 171.97 197.00 173.00
C 196.76 173.32 197.00 174.00 197.00 174.00
C 202.47 181.59 208.09 184.50 213.25 192.75 C 218.40 201.01 226.47 204.99 237.00 203.00 C 247.53 201.01 259.79 205.30 270.00 202.00
C 262.49 192.99 254.65 183.95 247.00 175.00
C 243.19 171.19 237.61 166.68 234.75 162.25 C 231.90 157.81 223.71 154.15 223.00 149.00
C 222.10 142.46 235.42 138.09 239.25 133.25 C 243.09 128.42 252.42 123.58 257.00 119.00
C 267.12 108.84 278.62 99.74 290.00 91.00
C 280.97 87.58 267.64 92.11 258.00 90.00 C 248.36 87.89 239.81 92.40 234.25 98.25 C 228.68 104.09 221.61 108.55 216.77 112.77 C 211.93 116.98 203.50 127.54 198.00 124.00 Z"/>
</g>
<g fill="None" fill-opacity="0.0" stroke="#35036C" stroke-opacity="1.00" stroke-width="0.3"><path d="
M 6.00 140.00 
C 14.84 122.65 25.77 102.50 47.00 97.00
C 50.22 95.72 53.98 93.48 57.00 92.00
C 36.71 97.82 7.01 115.29 6.00 140.00 Z"/>
</g>
<g fill="None" fill-opacity="0.0" stroke="#400A72" stroke-opacity="1.00" stroke-width="0.3"><path d="
M 118.00 118.00 
C 112.24 121.47 99.65 116.28 93.00 118.00 C 86.35 119.72 76.34 116.66 70.02 119.02 C 63.71 121.38 57.43 122.16 52.25 126.25 C 47.07 130.34 44.61 134.24 41.93 139.93 C 39.24 145.61 38.88 154.09 42.08 159.92 C 45.27 165.76 48.93 169.00 55.32 171.68 C 61.72 174.36 69.32 174.05 77.00 174.00 C 84.68 173.95 94.10 173.71 102.00 174.00 C 109.90 174.29 118.05 173.12 126.00 174.00 C 133.95 174.88 137.94 172.20 144.00 168.00
C 144.94 167.35 146.05 166.72 147.00 166.00
C 151.49 161.88 157.52 157.98 161.00 153.00
C 146.06 158.39 138.91 177.05 120.00 173.00 C 101.09 168.95 78.90 175.84 61.07 171.93 C 43.25 168.02 35.70 151.17 45.00 136.00
C 47.04 132.67 50.87 129.17 54.00 127.00
C 60.86 122.25 68.45 120.00 77.00 120.00
C 90.53 118.69 105.75 118.90 120.00 119.00
C 120.76 116.81 118.70 115.68 118.00 114.00
C 116.68 112.47 115.35 110.58 114.00 109.00
C 111.99 106.99 109.80 105.19 108.00 103.00
C 107.01 101.79 106.03 100.26 105.00 99.00
C 103.33 97.27 100.75 95.75 99.00 94.00
C 101.54 96.97 107.56 103.68 109.75 106.25 C 111.95 108.82 119.99 116.80 118.00 118.00 Z"/>
</g>
<g fill="None" fill-opacity="0.0" stroke="#411A4D" stroke-opacity="1.00" stroke-width="0.3"><path d="
M 263.00 115.00 
C 270.23 108.82 280.54 102.81 286.00 95.00
C 277.93 101.16 270.21 107.79 263.00 115.00 Z"/>
</g>
<g fill="None" fill-opacity="0.0" stroke="#1A052B" stroke-opacity="1.00" stroke-width="0.3"><path d="
M 114.00 109.00 
C 112.19 106.88 109.94 105.02 108.00 103.00
C 109.80 105.19 111.99 106.99 114.00 109.00 Z"/>
</g>
<g fill="None" fill-opacity="0.0" stroke="#601D83" stroke-opacity="1.00" stroke-width="0.3"><path d="
M 195.00 119.00 
C 195.63 119.80 197.58 123.73 198.00 124.00
C 203.61 124.81 206.49 119.25 210.00 116.00
C 208.17 117.44 203.41 123.14 201.00 123.00
C 197.48 122.79 192.90 114.40 191.00 112.00
C 188.18 108.95 184.79 105.99 182.00 103.00
C 185.81 108.45 190.64 113.48 195.00 119.00 Z"/>
</g>
<g fill="None" fill-opacity="0.0" stroke="#0E011A" stroke-opacity="1.00" stroke-width="0.3"><path d="
M 77.00 120.00 
C 84.72 120.00 96.70 120.10 104.00 120.00 C 111.30 119.90 125.08 122.21 118.00 114.00
C 118.70 115.68 120.76 116.81 120.00 119.00
C 105.75 118.90 90.53 118.69 77.00 120.00 Z"/>
</g>
<g fill="None" fill-opacity="0.0" stroke="#380F53" stroke-opacity="1.00" stroke-width="0.3"><path d="
M 163.00 137.00 
C 166.14 140.14 172.65 143.05 169.00 147.00
C 166.95 149.22 163.99 150.15 162.00 153.00
C 162.80 152.86 163.16 152.15 164.00 152.00
C 164.00 152.00 164.64 152.22 165.00 152.00
C 168.71 146.69 175.40 147.53 168.25 140.75 C 161.09 133.97 153.89 125.89 147.00 119.00
C 151.89 125.20 157.75 130.86 163.00 137.00 Z"/>
</g>
<g fill="None" fill-opacity="0.0" stroke="#0F011C" stroke-opacity="1.00" stroke-width="0.3"><path d="
M 45.00 136.00 
C 46.84 133.45 51.48 129.05 54.00 127.00
C 50.87 129.17 47.04 132.67 45.00 136.00 Z"/>
</g>
<g fill="None" fill-opacity="0.0" stroke="#180622" stroke-opacity="1.00" stroke-width="0.3"><path d="
M 169.00 147.00 
C 172.65 143.05 166.14 140.14 163.00 137.00
C 165.19 139.57 171.03 143.61 169.00 147.00 Z"/>
</g>
<g fill="None" fill-opacity="0.0" stroke="#300270" stroke-opacity="1.00" stroke-width="0.3"><path d="
M 6.00 163.00 
C 6.00 156.00 6.00 149.00 6.00 142.00
C 3.88 149.05 3.86 155.90 6.00 163.00 Z"/>
</g>
<g fill="None" fill-opacity="0.0" stroke="#63217D" stroke-opacity="1.00" stroke-width="0.3"><path d="
M 247.00 175.00 
C 244.77 172.40 242.27 169.65 240.00 167.00
C 238.38 165.10 236.71 162.71 235.00 161.00
C 233.13 159.40 229.96 157.22 229.25 154.75 C 228.53 152.28 223.44 151.08 223.00 149.00
C 223.71 154.15 231.90 157.81 234.75 162.25 C 237.61 166.68 243.19 171.19 247.00 175.00 Z"/>
</g>
<g fill="None" fill-opacity="0.0" stroke="#741EB1" stroke-opacity="1.00" stroke-width="0.3"><path d="
M 162.00 153.00 
C 162.00 153.00 161.44 152.84 161.00 153.00
C 157.52 157.98 151.49 161.88 147.00 166.00
C 152.76 161.64 159.06 157.15 164.00 152.00
C 163.16 152.15 162.80 152.86 162.00 153.00 Z"/>
</g>
<g fill="None" fill-opacity="0.0" stroke="#16071C" stroke-opacity="1.00" stroke-width="0.3"><path d="
M 240.00 167.00 
C 239.25 165.84 237.33 162.99 235.00 161.00
C 236.71 162.71 238.38 165.10 240.00 167.00 Z"/>
</g>
<g fill="None" fill-opacity="0.0" stroke="#3E047F" stroke-opacity="1.00" stroke-width="0.3"><path d="
M 29.00 194.00 
C 19.88 184.47 13.18 175.29 6.00 165.00
C 7.30 175.26 18.16 191.50 29.00 194.00 Z"/>
</g>
<g fill="None" fill-opacity="0.0" stroke="#5E1E83" stroke-opacity="1.00" stroke-width="0.3"><path d="
M 171.00 190.00 
C 174.22 187.99 177.04 185.53 180.00 183.00
C 182.73 180.67 189.56 172.16 193.00 172.00
C 194.86 171.91 195.49 173.24 197.00 174.00
C 197.00 174.00 196.76 173.32 197.00 173.00
C 193.19 167.90 186.45 176.13 183.25 179.25 C 180.04 182.36 173.53 186.12 171.00 190.00 Z"/>
</g>
<g fill="None" fill-opacity="0.0" stroke="#280C37" stroke-opacity="1.00" stroke-width="0.3"><path d="
M 180.00 183.00 
C 180.37 182.76 184.74 179.31 186.25 178.25 C 187.77 177.20 191.88 172.14 193.00 172.00
C 189.56 172.16 182.73 180.67 180.00 183.00 Z"/>
</g>
<g fill="None" fill-opacity="0.0" stroke="#3F086A" stroke-opacity="1.00" stroke-width="0.3"><path d="
M 138.00 202.00 
C 101.97 202.00 62.73 206.85 30.00 194.00
C 36.18 203.48 50.02 202.32 61.00 204.00 C 71.98 205.68 89.89 202.87 102.00 204.00 C 114.11 205.13 130.79 202.66 143.00 204.00 C 155.21 205.34 163.21 199.71 170.00 190.00
C 164.89 192.50 162.77 196.55 157.75 199.75 C 152.72 202.94 144.24 202.00 138.00 202.00 Z"/>
</g>
<g fill="#000000" fill-opacity="1.00" stroke="None">
<path d="
M 0.00 294.00 
L 300.00 294.00
L 300.00 0.00
L 0.00 0.00
L 0.00 294.00
M 105.00 99.00 
C 106.03 100.26 107.01 101.79 108.00 103.00
C 109.94 105.02 112.19 106.88 114.00 109.00
C 115.35 110.58 116.68 112.47 118.00 114.00
C 125.08 122.21 111.30 119.90 104.00 120.00 C 96.70 120.10 84.72 120.00 77.00 120.00
C 68.45 120.00 60.86 122.25 54.00 127.00
C 51.48 129.05 46.84 133.45 45.00 136.00
C 35.70 151.17 43.25 168.02 61.07 171.93 C 78.90 175.84 101.09 168.95 120.00 173.00 C 138.91 177.05 146.06 158.39 161.00 153.00
C 161.44 152.84 162.00 153.00 162.00 153.00
C 163.99 150.15 166.95 149.22 169.00 147.00
C 171.03 143.61 165.19 139.57 163.00 137.00
C 157.75 130.86 151.89 125.20 147.00 119.00
C 139.95 110.06 128.94 101.96 124.00 92.00
C 123.44 90.87 120.78 90.17 122.00 88.00
C 135.11 89.74 155.63 85.68 168.00 88.00 C 180.37 90.32 181.19 106.00 191.00 112.00
C 192.90 114.40 197.48 122.79 201.00 123.00
C 208.99 116.45 214.93 109.81 223.75 103.75 C 232.57 97.69 237.78 87.43 250.00 88.00 C 262.22 88.57 279.34 87.57 292.00 88.00
C 292.54 91.19 289.21 93.43 287.00 95.00
C 286.60 95.20 286.00 95.00 286.00 95.00
C 280.54 102.81 270.23 108.82 263.00 115.00
C 261.08 116.64 258.81 117.73 257.00 119.00
C 252.42 123.58 243.09 128.42 239.25 133.25 C 235.42 138.09 222.10 142.46 223.00 149.00
C 223.44 151.08 228.53 152.28 229.25 154.75 C 229.96 157.22 233.13 159.40 235.00 161.00
C 237.33 162.99 239.25 165.84 240.00 167.00
C 242.27 169.65 244.77 172.40 247.00 175.00
C 254.65 183.95 262.49 192.99 270.00 202.00
C 259.79 205.30 247.53 201.01 237.00 203.00 C 226.47 204.99 218.40 201.01 213.25 192.75 C 208.09 184.50 202.47 181.59 197.00 174.00
C 195.49 173.24 194.86 171.91 193.00 172.00
C 191.88 172.14 187.77 177.20 186.25 178.25 C 184.74 179.31 180.37 182.76 180.00 183.00
C 177.04 185.53 174.22 187.99 171.00 190.00
C 170.64 190.22 170.00 190.00 170.00 190.00
C 163.21 199.71 155.21 205.34 143.00 204.00 C 130.79 202.66 114.11 205.13 102.00 204.00 C 89.89 202.87 71.98 205.68 61.00 204.00 C 50.02 202.32 36.18 203.48 30.00 194.00
C 29.57 193.83 29.00 194.00 29.00 194.00
C 18.16 191.50 7.30 175.26 6.00 165.00
C 5.94 164.51 6.00 163.50 6.00 163.00
C 3.86 155.90 3.88 149.05 6.00 142.00
C 6.00 141.50 5.98 140.50 6.00 140.00
C 7.01 115.29 36.71 97.82 57.00 92.00
C 59.70 91.22 62.11 90.23 65.00 90.00
C 81.52 86.81 93.74 85.27 105.00 99.00 Z"/>
</g>
<g fill="#22043D" fill-opacity="1.00" stroke="None">
<path d="
M 65.00 90.00 
C 75.68 89.15 91.54 85.27 99.00 94.00
C 100.75 95.75 103.33 97.27 105.00 99.00
C 93.74 85.27 81.52 86.81 65.00 90.00 Z"/>
</g>
<g fill="#2E0A44" fill-opacity="1.00" stroke="None">
<path d="
M 124.00 92.00 
C 123.83 91.00 122.52 90.24 123.00 89.00
C 140.97 92.61 167.39 80.05 178.00 99.00
C 179.50 100.28 180.71 101.62 182.00 103.00
C 184.79 105.99 188.18 108.95 191.00 112.00
C 181.19 106.00 180.37 90.32 168.00 88.00 C 155.63 85.68 135.11 89.74 122.00 88.00
C 120.78 90.17 123.44 90.87 124.00 92.00 Z"/>
</g>
<g fill="#371344" fill-opacity="1.00" stroke="None">
<path d="
M 201.00 123.00 
C 203.41 123.14 208.17 117.44 210.00 116.00
C 220.94 107.36 227.87 99.82 239.75 91.75 C 251.63 83.69 276.72 92.07 291.00 89.00
C 291.27 91.75 287.71 92.68 287.00 95.00
C 289.21 93.43 292.54 91.19 292.00 88.00
C 279.34 87.57 262.22 88.57 250.00 88.00 C 237.78 87.43 232.57 97.69 223.75 103.75 C 214.93 109.81 208.99 116.45 201.00 123.00 Z"/>
</g>
<g fill="#6211B3" fill-opacity="1.00" stroke="None">
<path d="
M 65.00 90.00 
C 62.11 90.23 59.70 91.22 57.00 92.00
C 53.98 93.48 50.22 95.72 47.00 97.00
C 56.54 94.53 65.60 92.58 75.22 90.22 C 84.84 87.86 96.65 90.24 101.70 98.30 C 106.75 106.36 113.77 109.94 118.00 118.00
C 119.99 116.80 111.95 108.82 109.75 106.25 C 107.56 103.68 101.54 96.97 99.00 94.00
C 91.54 85.27 75.68 89.15 65.00 90.00 Z"/>
</g>
<g fill="#6E1BA8" fill-opacity="1.00" stroke="None">
<path d="
M 124.00 92.00 
C 128.94 101.96 139.95 110.06 147.00 119.00
C 153.89 125.89 161.09 133.97 168.25 140.75 C 175.40 147.53 168.71 146.69 165.00 152.00
C 167.85 150.23 170.39 148.09 173.00 146.00
C 170.36 138.33 160.17 134.78 156.25 127.75 C 152.32 120.73 142.94 114.73 143.00 107.00
C 135.50 106.98 129.78 95.54 125.00 90.00
C 135.20 89.19 145.85 91.08 156.00 90.00 C 166.15 88.92 171.89 91.17 178.00 99.00
C 167.39 80.05 140.97 92.61 123.00 89.00
C 122.52 90.24 123.83 91.00 124.00 92.00 Z"/>
</g>
<g fill="#8F35B4" fill-opacity="1.00" stroke="None">
<path d="
M 210.00 116.00 
C 206.49 119.25 203.61 124.81 198.00 124.00
C 203.50 127.54 211.93 116.98 216.77 112.77 C 221.61 108.55 228.68 104.09 234.25 98.25 C 239.81 92.40 248.36 87.89 258.00 90.00 C 267.64 92.11 280.97 87.58 290.00 91.00
C 278.62 99.74 267.12 108.84 257.00 119.00
C 258.81 117.73 261.08 116.64 263.00 115.00
C 270.21 107.79 277.93 101.16 286.00 95.00
C 286.00 95.00 286.60 95.20 287.00 95.00
C 287.71 92.68 291.27 91.75 291.00 89.00
C 276.72 92.07 251.63 83.69 239.75 91.75 C 227.87 99.82 220.94 107.36 210.00 116.00 Z"/>
</g>
<g fill="#880CFB" fill-opacity="1.00" stroke="None">
<path d="
M 47.00 97.00 
C 25.77 102.50 14.84 122.65 6.00 140.00
C 5.98 140.50 6.00 141.50 6.00 142.00
C 6.00 149.00 6.00 156.00 6.00 163.00
C 6.00 163.50 5.94 164.51 6.00 165.00
C 13.18 175.29 19.88 184.47 29.00 194.00
C 29.00 194.00 29.57 193.83 30.00 194.00
C 62.73 206.85 101.97 202.00 138.00 202.00
C 132.56 201.47 123.96 200.56 118.00 201.00 C 112.04 201.44 98.65 201.24 110.00 199.00
C 106.46 197.94 102.40 198.59 99.00 197.00
C 107.94 196.67 102.06 185.47 104.00 180.00
C 106.42 180.21 109.79 179.08 109.00 176.00
C 106.16 178.50 103.18 175.30 100.00 176.00
C 113.54 171.29 134.04 181.68 144.00 168.00
C 137.94 172.20 133.95 174.88 126.00 174.00 C 118.05 173.12 109.90 174.29 102.00 174.00 C 94.10 173.71 84.68 173.95 77.00 174.00 C 69.32 174.05 61.72 174.36 55.32 171.68 C 48.93 169.00 45.27 165.76 42.08 159.92 C 38.88 154.09 39.24 145.61 41.93 139.93 C 44.61 134.24 47.07 130.34 52.25 126.25 C 57.43 122.16 63.71 121.38 70.02 119.02 C 76.34 116.66 86.35 119.72 93.00 118.00 C 99.65 116.28 112.24 121.47 118.00 118.00
C 113.77 109.94 106.75 106.36 101.70 98.30 C 96.65 90.24 84.84 87.86 75.22 90.22 C 65.60 92.58 56.54 94.53 47.00 97.00 Z"/>
</g>
<g fill="#B028FD" fill-opacity="1.00" stroke="None">
<path d="
M 165.00 152.00 
C 164.64 152.22 164.00 152.00 164.00 152.00
C 159.06 157.15 152.76 161.64 147.00 166.00
C 146.05 166.72 144.94 167.35 144.00 168.00
C 134.04 181.68 113.54 171.29 100.00 176.00
C 103.18 175.30 106.16 178.50 109.00 176.00
C 109.79 179.08 106.42 180.21 104.00 180.00
C 102.06 185.47 107.94 196.67 99.00 197.00
C 102.40 198.59 106.46 197.94 110.00 199.00
C 98.65 201.24 112.04 201.44 118.00 201.00 C 123.96 200.56 132.56 201.47 138.00 202.00
C 144.24 202.00 152.72 202.94 157.75 199.75 C 162.77 196.55 164.89 192.50 170.00 190.00
C 170.00 190.00 170.64 190.22 171.00 190.00
C 173.53 186.12 180.04 182.36 183.25 179.25 C 186.45 176.13 193.19 167.90 197.00 173.00
C 197.78 171.97 197.06 171.67 197.00 170.00
C 192.85 169.62 188.82 169.75 186.00 173.00
C 182.11 168.07 189.57 166.13 188.99 159.99 C 188.42 153.85 189.04 146.06 189.00 140.00 C 188.96 133.94 186.61 125.56 194.00 125.00
C 193.68 121.02 187.21 120.72 188.00 115.00
C 190.31 115.93 192.48 117.55 195.00 119.00
C 190.64 113.48 185.81 108.45 182.00 103.00
C 180.71 101.62 179.50 100.28 178.00 99.00
C 171.89 91.17 166.15 88.92 156.00 90.00 C 145.85 91.08 135.20 89.19 125.00 90.00
C 129.78 95.54 135.50 106.98 143.00 107.00
C 142.94 114.73 152.32 120.73 156.25 127.75 C 160.17 134.78 170.36 138.33 173.00 146.00
C 170.39 148.09 167.85 150.23 165.00 152.00 Z"/>
</g>
<g fill="#CD3FFB" fill-opacity="1.00" stroke="None">
<path d="
M 198.00 124.00 
C 197.58 123.73 195.63 119.80 195.00 119.00
C 192.48 117.55 190.31 115.93 188.00 115.00
C 187.21 120.72 193.68 121.02 194.00 125.00
C 186.61 125.56 188.96 133.94 189.00 140.00 C 189.04 146.06 188.42 153.85 188.99 159.99 C 189.57 166.13 182.11 168.07 186.00 173.00
C 188.82 169.75 192.85 169.62 197.00 170.00
C 197.06 171.67 197.78 171.97 197.00 173.00
C 196.76 173.32 197.00 174.00 197.00 174.00
C 202.47 181.59 208.09 184.50 213.25 192.75 C 218.40 201.01 226.47 204.99 237.00 203.00 C 247.53 201.01 259.79 205.30 270.00 202.00
C 262.49 192.99 254.65 183.95 247.00 175.00
C 243.19 171.19 237.61 166.68 234.75 162.25 C 231.90 157.81 223.71 154.15 223.00 149.00
C 222.10 142.46 235.42 138.09 239.25 133.25 C 243.09 128.42 252.42 123.58 257.00 119.00
C 267.12 108.84 278.62 99.74 290.00 91.00
C 280.97 87.58 267.64 92.11 258.00 90.00 C 248.36 87.89 239.81 92.40 234.25 98.25 C 228.68 104.09 221.61 108.55 216.77 112.77 C 211.93 116.98 203.50 127.54 198.00 124.00 Z"/>
</g>
<g fill="#35036C" fill-opacity="1.00" stroke="None">
<path d="
M 6.00 140.00 
C 14.84 122.65 25.77 102.50 47.00 97.00
C 50.22 95.72 53.98 93.48 57.00 92.00
C 36.71 97.82 7.01 115.29 6.00 140.00 Z"/>
</g>
<g fill="#400A72" fill-opacity="1.00" stroke="None">
<path d="
M 118.00 118.00 
C 112.24 121.47 99.65 116.28 93.00 118.00 C 86.35 119.72 76.34 116.66 70.02 119.02 C 63.71 121.38 57.43 122.16 52.25 126.25 C 47.07 130.34 44.61 134.24 41.93 139.93 C 39.24 145.61 38.88 154.09 42.08 159.92 C 45.27 165.76 48.93 169.00 55.32 171.68 C 61.72 174.36 69.32 174.05 77.00 174.00 C 84.68 173.95 94.10 173.71 102.00 174.00 C 109.90 174.29 118.05 173.12 126.00 174.00 C 133.95 174.88 137.94 172.20 144.00 168.00
C 144.94 167.35 146.05 166.72 147.00 166.00
C 151.49 161.88 157.52 157.98 161.00 153.00
C 146.06 158.39 138.91 177.05 120.00 173.00 C 101.09 168.95 78.90 175.84 61.07 171.93 C 43.25 168.02 35.70 151.17 45.00 136.00
C 47.04 132.67 50.87 129.17 54.00 127.00
C 60.86 122.25 68.45 120.00 77.00 120.00
C 90.53 118.69 105.75 118.90 120.00 119.00
C 120.76 116.81 118.70 115.68 118.00 114.00
C 116.68 112.47 115.35 110.58 114.00 109.00
C 111.99 106.99 109.80 105.19 108.00 103.00
C 107.01 101.79 106.03 100.26 105.00 99.00
C 103.33 97.27 100.75 95.75 99.00 94.00
C 101.54 96.97 107.56 103.68 109.75 106.25 C 111.95 108.82 119.99 116.80 118.00 118.00 Z"/>
</g>
<g fill="#411A4D" fill-opacity="1.00" stroke="None">
<path d="
M 263.00 115.00 
C 270.23 108.82 280.54 102.81 286.00 95.00
C 277.93 101.16 270.21 107.79 263.00 115.00 Z"/>
</g>
<g fill="#1A052B" fill-opacity="1.00" stroke="None">
<path d="
M 114.00 109.00 
C 112.19 106.88 109.94 105.02 108.00 103.00
C 109.80 105.19 111.99 106.99 114.00 109.00 Z"/>
</g>
<g fill="#601D83" fill-opacity="1.00" stroke="None">
<path d="
M 195.00 119.00 
C 195.63 119.80 197.58 123.73 198.00 124.00
C 203.61 124.81 206.49 119.25 210.00 116.00
C 208.17 117.44 203.41 123.14 201.00 123.00
C 197.48 122.79 192.90 114.40 191.00 112.00
C 188.18 108.95 184.79 105.99 182.00 103.00
C 185.81 108.45 190.64 113.48 195.00 119.00 Z"/>
</g>
<g fill="#0E011A" fill-opacity="1.00" stroke="None">
<path d="
M 77.00 120.00 
C 84.72 120.00 96.70 120.10 104.00 120.00 C 111.30 119.90 125.08 122.21 118.00 114.00
C 118.70 115.68 120.76 116.81 120.00 119.00
C 105.75 118.90 90.53 118.69 77.00 120.00 Z"/>
</g>
<g fill="#380F53" fill-opacity="1.00" stroke="None">
<path d="
M 163.00 137.00 
C 166.14 140.14 172.65 143.05 169.00 147.00
C 166.95 149.22 163.99 150.15 162.00 153.00
C 162.80 152.86 163.16 152.15 164.00 152.00
C 164.00 152.00 164.64 152.22 165.00 152.00
C 168.71 146.69 175.40 147.53 168.25 140.75 C 161.09 133.97 153.89 125.89 147.00 119.00
C 151.89 125.20 157.75 130.86 163.00 137.00 Z"/>
</g>
<g fill="#0F011C" fill-opacity="1.00" stroke="None">
<path d="
M 45.00 136.00 
C 46.84 133.45 51.48 129.05 54.00 127.00
C 50.87 129.17 47.04 132.67 45.00 136.00 Z"/>
</g>
<g fill="#180622" fill-opacity="1.00" stroke="None">
<path d="
M 169.00 147.00 
C 172.65 143.05 166.14 140.14 163.00 137.00
C 165.19 139.57 171.03 143.61 169.00 147.00 Z"/>
</g>
<g fill="#300270" fill-opacity="1.00" stroke="None">
<path d="
M 6.00 163.00 
C 6.00 156.00 6.00 149.00 6.00 142.00
C 3.88 149.05 3.86 155.90 6.00 163.00 Z"/>
</g>
<g fill="#63217D" fill-opacity="1.00" stroke="None">
<path d="
M 247.00 175.00 
C 244.77 172.40 242.27 169.65 240.00 167.00
C 238.38 165.10 236.71 162.71 235.00 161.00
C 233.13 159.40 229.96 157.22 229.25 154.75 C 228.53 152.28 223.44 151.08 223.00 149.00
C 223.71 154.15 231.90 157.81 234.75 162.25 C 237.61 166.68 243.19 171.19 247.00 175.00 Z"/>
</g>
<g fill="#741EB1" fill-opacity="1.00" stroke="None">
<path d="
M 162.00 153.00 
C 162.00 153.00 161.44 152.84 161.00 153.00
C 157.52 157.98 151.49 161.88 147.00 166.00
C 152.76 161.64 159.06 157.15 164.00 152.00
C 163.16 152.15 162.80 152.86 162.00 153.00 Z"/>
</g>
<g fill="#16071C" fill-opacity="1.00" stroke="None">
<path d="
M 240.00 167.00 
C 239.25 165.84 237.33 162.99 235.00 161.00
C 236.71 162.71 238.38 165.10 240.00 167.00 Z"/>
</g>
<g fill="#3E047F" fill-opacity="1.00" stroke="None">
<path d="
M 29.00 194.00 
C 19.88 184.47 13.18 175.29 6.00 165.00
C 7.30 175.26 18.16 191.50 29.00 194.00 Z"/>
</g>
<g fill="#5E1E83" fill-opacity="1.00" stroke="None">
<path d="
M 171.00 190.00 
C 174.22 187.99 177.04 185.53 180.00 183.00
C 182.73 180.67 189.56 172.16 193.00 172.00
C 194.86 171.91 195.49 173.24 197.00 174.00
C 197.00 174.00 196.76 173.32 197.00 173.00
C 193.19 167.90 186.45 176.13 183.25 179.25 C 180.04 182.36 173.53 186.12 171.00 190.00 Z"/>
</g>
<g fill="#280C37" fill-opacity="1.00" stroke="None">
<path d="
M 180.00 183.00 
C 180.37 182.76 184.74 179.31 186.25 178.25 C 187.77 177.20 191.88 172.14 193.00 172.00
C 189.56 172.16 182.73 180.67 180.00 183.00 Z"/>
</g>
<g fill="#3F086A" fill-opacity="1.00" stroke="None">
<path d="
M 138.00 202.00 
C 101.97 202.00 62.73 206.85 30.00 194.00
C 36.18 203.48 50.02 202.32 61.00 204.00 C 71.98 205.68 89.89 202.87 102.00 204.00 C 114.11 205.13 130.79 202.66 143.00 204.00 C 155.21 205.34 163.21 199.71 170.00 190.00
C 164.89 192.50 162.77 196.55 157.75 199.75 C 152.72 202.94 144.24 202.00 138.00 202.00 Z"/>
</g>
</svg>